<svg width="20" height="20" viewBox="0 0 20 20" fill="none" xmlns="http://www.w3.org/2000/svg">
<path fill-rule="evenodd" clip-rule="evenodd" d="M14.4998 18.3333C7.42317 18.3333 1.6665 12.5767 1.6665 5.49999C1.6665 3.38582 3.3865 1.66666 5.49984 1.66666C5.7165 1.66666 5.93067 1.68499 6.13817 1.72082C6.34067 1.75332 6.54484 1.80499 6.74234 1.87332C7.014 1.96749 7.21734 2.19499 7.2815 2.47499L8.42317 7.44499C8.48567 7.71832 8.4065 8.00499 8.21234 8.20832C8.09817 8.32666 8.09567 8.32916 7.06234 8.86999C7.899 10.6817 9.35317 12.1308 11.129 12.9392C11.6698 11.905 11.6732 11.9017 11.7915 11.7883C11.9957 11.5933 12.2832 11.5175 12.5557 11.5775L17.5257 12.7183C17.8048 12.7825 18.0323 12.9858 18.1265 13.2567C18.1948 13.4533 18.2457 13.6567 18.2798 13.8658C18.3148 14.0717 18.3332 14.285 18.3332 14.5C18.3332 16.6142 16.614 18.3333 14.4998 18.3333Z" fill="#7A9198"/>
</svg>
