<svg width="25" height="24" viewBox="0 0 25 24" fill="none" xmlns="http://www.w3.org/2000/svg">
<path fill-rule="evenodd" clip-rule="evenodd" d="M13.9141 12L18.2071 7.70701C18.5981 7.31601 18.5981 6.68401 18.2071 6.29301C17.8161 5.90201 17.1841 5.90201 16.7931 6.29301L12.5001 10.586L8.20713 6.29301C7.81613 5.90201 7.18413 5.90201 6.79313 6.29301C6.40213 6.68401 6.40213 7.31601 6.79313 7.70701L11.0861 12L6.79313 16.293C6.40213 16.684 6.40213 17.316 6.79313 17.707C6.98813 17.902 7.24413 18 7.50013 18C7.75613 18 8.01213 17.902 8.20713 17.707L12.5001 13.414L16.7931 17.707C16.9881 17.902 17.2441 18 17.5001 18C17.7561 18 18.0121 17.902 18.2071 17.707C18.5981 17.316 18.5981 16.684 18.2071 16.293L13.9141 12Z" fill="#8A8F97"/>
</svg>
