<svg width="17" height="17" viewBox="0 0 17 17" fill="none" xmlns="http://www.w3.org/2000/svg">
<path fill-rule="evenodd" clip-rule="evenodd" d="M8.48876 5.38193L4.74409 9.1266L4.56809 11.0973L6.55276 10.9166L10.2861 7.17926L8.48876 5.38193ZM12.4774 4.98593L10.6808 3.18993L9.38209 4.4886L11.1788 6.28593L12.4774 4.98593ZM3.89409 12.4973C3.87342 12.4993 3.85342 12.4999 3.83342 12.4999C3.65742 12.4999 3.48742 12.4306 3.36209 12.3046C3.22209 12.1646 3.15142 11.9699 3.16942 11.7733L3.42209 8.9926C3.45009 8.68793 3.58476 8.4006 3.80142 8.18393L9.79876 2.18593C10.2668 1.7166 11.1161 1.73993 11.6094 2.2326L13.4348 4.05793H13.4354C13.9461 4.56927 13.9661 5.3806 13.4808 5.86727L7.48276 11.8653C7.26609 12.0826 6.97943 12.2166 6.67409 12.2446L3.89409 12.4973ZM3.83329 13.8333H13.1666C13.5333 13.8333 13.8333 14.1333 13.8333 14.5C13.8333 14.8667 13.5333 15.1667 13.1666 15.1667H3.83329C3.46663 15.1667 3.16663 14.8667 3.16663 14.5C3.16663 14.1333 3.46663 13.8333 3.83329 13.8333Z" fill="#8A8F97"/>
</svg>
