<svg width="20" height="20" viewBox="0 0 20 20" fill="none" xmlns="http://www.w3.org/2000/svg">
<path fill-rule="evenodd" clip-rule="evenodd" d="M13.3488 8.89891L11.1029 6.65307L12.7263 5.02891L14.9713 7.27391L13.3488 8.89891ZM16.1696 6.11474L16.1688 6.11391L13.8871 3.83224C13.2696 3.21641 12.2088 3.18724 11.6238 3.77474L4.12709 11.2714C3.85542 11.5422 3.68709 11.9022 3.65209 12.2831L3.33625 15.7581C3.31459 16.0039 3.40209 16.2472 3.57709 16.4222C3.73459 16.5797 3.94709 16.6664 4.16625 16.6664C4.19209 16.6664 4.21709 16.6656 4.24209 16.6631L7.71709 16.3472C8.09875 16.3122 8.45792 16.1447 8.72875 15.8739L16.2263 8.37641C16.8329 7.76807 16.8071 6.75307 16.1696 6.11474Z" fill="#7A9198"/>
</svg>
