<svg width="16" height="17" viewBox="0 0 16 17" fill="none" xmlns="http://www.w3.org/2000/svg">
<path d="M4.96971 15.1668H1.9394C1.77867 15.1668 1.62451 15.1029 1.51085 14.9893C1.3972 14.8756 1.33334 14.7215 1.33334 14.5607V11.5304C1.33334 11.3697 1.3972 11.2155 1.51085 11.1019C1.62451 10.9882 1.77867 10.9244 1.9394 10.9244C2.10014 10.9244 2.2543 10.9882 2.36795 11.1019C2.48161 11.2155 2.54546 11.3697 2.54546 11.5304V13.9547H4.96971C5.13044 13.9547 5.2846 14.0185 5.39826 14.1322C5.51191 14.2458 5.57577 14.4 5.57577 14.5607C5.57577 14.7215 5.51191 14.8756 5.39826 14.9893C5.2846 15.1029 5.13044 15.1668 4.96971 15.1668Z" fill="#8A8F97"/>
<path d="M14.0607 15.1668H11.0304C10.8697 15.1668 10.7155 15.1029 10.6019 14.9893C10.4882 14.8756 10.4244 14.7215 10.4244 14.5607C10.4244 14.4 10.4882 14.2458 10.6019 14.1322C10.7155 14.0185 10.8697 13.9547 11.0304 13.9547H13.4547V11.5304C13.4547 11.3697 13.5185 11.2155 13.6322 11.1019C13.7458 10.9882 13.9 10.9244 14.0607 10.9244C14.2215 10.9244 14.3756 10.9882 14.4893 11.1019C14.6029 11.2155 14.6668 11.3697 14.6668 11.5304V14.5607C14.6668 14.7215 14.6029 14.8756 14.4893 14.9893C14.3756 15.1029 14.2215 15.1668 14.0607 15.1668Z" fill="#8A8F97"/>
<path d="M14.0607 6.07577C13.9 6.07577 13.7458 6.01191 13.6322 5.89826C13.5185 5.7846 13.4547 5.63044 13.4547 5.46971V3.04546H11.0304C10.8697 3.04546 10.7155 2.98161 10.6019 2.86795C10.4882 2.7543 10.4244 2.60014 10.4244 2.4394C10.4244 2.27867 10.4882 2.12451 10.6019 2.01085C10.7155 1.8972 10.8697 1.83334 11.0304 1.83334H14.0607C14.2215 1.83334 14.3756 1.8972 14.4893 2.01085C14.6029 2.12451 14.6668 2.27867 14.6668 2.4394V5.46971C14.6668 5.63044 14.6029 5.7846 14.4893 5.89826C14.3756 6.01191 14.2215 6.07577 14.0607 6.07577Z" fill="#8A8F97"/>
<path d="M1.9394 6.07577C1.77867 6.07577 1.62451 6.01191 1.51085 5.89826C1.3972 5.7846 1.33334 5.63044 1.33334 5.46971V2.4394C1.33334 2.27867 1.3972 2.12451 1.51085 2.01085C1.62451 1.8972 1.77867 1.83334 1.9394 1.83334H4.96971C5.13044 1.83334 5.2846 1.8972 5.39826 2.01085C5.51191 2.12451 5.57577 2.27867 5.57577 2.4394C5.57577 2.60014 5.51191 2.7543 5.39826 2.86795C5.2846 2.98161 5.13044 3.04546 4.96971 3.04546H2.54546V5.46971C2.54546 5.63044 2.48161 5.7846 2.36795 5.89826C2.2543 6.01191 2.10014 6.07577 1.9394 6.07577Z" fill="#8A8F97"/>
<path d="M7.99965 9.40925C7.52018 9.40925 7.05148 9.26707 6.65282 9.00069C6.25415 8.73431 5.94343 8.35569 5.75994 7.91272C5.57646 7.46975 5.52845 6.98232 5.62199 6.51206C5.71553 6.0418 5.94642 5.60984 6.28545 5.27081C6.62449 4.93177 7.05645 4.70088 7.52671 4.60734C7.99696 4.5138 8.4844 4.56181 8.92737 4.7453C9.37034 4.92878 9.74896 5.2395 10.0153 5.63817C10.2817 6.03683 10.4239 6.50553 10.4239 6.985C10.4239 7.62795 10.1685 8.24457 9.71385 8.6992C9.25922 9.15384 8.6426 9.40925 7.99965 9.40925ZM7.99965 5.77288C7.75992 5.77288 7.52557 5.84397 7.32623 5.97716C7.1269 6.11035 6.97154 6.29966 6.8798 6.52115C6.78806 6.74263 6.76405 6.98635 6.81082 7.22148C6.85759 7.45661 6.97304 7.67259 7.14255 7.8421C7.31207 8.01162 7.52805 8.12707 7.76318 8.17384C7.99831 8.22061 8.24203 8.1966 8.46351 8.10486C8.685 8.01312 8.87431 7.85776 9.00749 7.65842C9.14068 7.45909 9.21177 7.22474 9.21177 6.985C9.21177 6.66353 9.08407 6.35522 8.85675 6.12791C8.62944 5.90059 8.32113 5.77288 7.99965 5.77288Z" fill="#8A8F97"/>
<path d="M11.365 12.379L11.2081 12.3002C10.211 11.805 9.11285 11.5472 7.99957 11.5472C6.8863 11.5472 5.78813 11.805 4.79109 12.3002L4.63412 12.379C4.49026 12.4509 4.32375 12.4626 4.17122 12.4117C4.01869 12.3608 3.89264 12.2514 3.82079 12.1075C3.74894 11.9636 3.73718 11.7971 3.7881 11.6446C3.83902 11.4921 3.94844 11.366 4.0923 11.2942L4.24927 11.216C5.41463 10.6369 6.69826 10.3355 7.99957 10.3355C9.30089 10.3355 10.5845 10.6369 11.7499 11.216L11.9068 11.2942C11.9781 11.3297 12.0416 11.379 12.0938 11.4391C12.146 11.4993 12.1858 11.5691 12.2111 11.6446C12.2363 11.7201 12.2464 11.7999 12.2407 11.8793C12.2351 11.9587 12.2139 12.0363 12.1784 12.1075C12.1428 12.1787 12.0935 12.2423 12.0334 12.2945C11.9733 12.3467 11.9035 12.3865 11.8279 12.4117C11.7524 12.4369 11.6727 12.447 11.5932 12.4414C11.5138 12.4358 11.4363 12.4146 11.365 12.379Z" fill="#8A8F97"/>
</svg>
