<svg width="17" height="17" viewBox="0 0 17 17" fill="none" xmlns="http://www.w3.org/2000/svg">
<path d="M8.50008 2.49998C7.76675 2.49998 7.16675 3.09998 7.16675 3.83332C7.16675 4.56665 7.76675 5.16665 8.50008 5.16665C9.23341 5.16665 9.83341 4.56665 9.83341 3.83332C9.83341 3.09998 9.23341 2.49998 8.50008 2.49998ZM8.50008 11.8333C7.76675 11.8333 7.16675 12.4333 7.16675 13.1667C7.16675 13.9 7.76675 14.5 8.50008 14.5C9.23341 14.5 9.83341 13.9 9.83341 13.1667C9.83341 12.4333 9.23341 11.8333 8.50008 11.8333ZM8.50008 7.16665C7.76675 7.16665 7.16675 7.76665 7.16675 8.49999C7.16675 9.23332 7.76675 9.83332 8.50008 9.83332C9.23341 9.83332 9.83341 9.23332 9.83341 8.49999C9.83341 7.76665 9.23341 7.16665 8.50008 7.16665Z" fill="#0D7A3D"/>
</svg>
