<svg width="16" height="17" viewBox="0 0 16 17" fill="none" xmlns="http://www.w3.org/2000/svg">
<path fill-rule="evenodd" clip-rule="evenodd" d="M10.6667 7.83333C10.6667 9.304 9.47071 10.5 8.00004 10.5C6.52937 10.5 5.33337 9.304 5.33337 7.83333V4.49999C5.33337 3.02933 6.52937 1.83333 8.00004 1.83333C9.47071 1.83333 10.6667 3.02933 10.6667 4.49999V7.83333ZM12 7.16666C12.3687 7.16666 12.6667 7.46533 12.6667 7.83333C12.6667 10.18 10.9247 12.1213 8.66671 12.4467V13.8333H10.07C10.3987 13.8333 10.6667 14.1013 10.6667 14.43V14.57C10.6667 14.8987 10.3987 15.1667 10.07 15.1667H5.93004C5.60137 15.1667 5.33337 14.8987 5.33337 14.57V14.43C5.33337 14.1013 5.60137 13.8333 5.93004 13.8333H7.33337V12.4467C5.07537 12.1213 3.33337 10.18 3.33337 7.83333C3.33337 7.46533 3.63137 7.16666 4.00004 7.16666C4.36871 7.16666 4.66671 7.46533 4.66671 7.83333C4.66671 9.67133 6.16204 11.1667 8.00004 11.1667C9.83804 11.1667 11.3334 9.67133 11.3334 7.83333C11.3334 7.46533 11.6314 7.16666 12 7.16666Z" fill="#8A8F97"/>
</svg>
