<svg width="25" height="10" viewBox="0 0 25 10" fill="none" xmlns="http://www.w3.org/2000/svg">
<path d="M3.51014 9.19967L1.14141 6.83093C0.971729 6.66141 0.872667 6.43384 0.864212 6.19413C0.855758 5.95443 0.93854 5.72044 1.09585 5.53938C1.3685 5.22655 1.59693 4.97668 1.78182 4.79179C7.70165 -1.12804 17.2985 -1.12804 23.2183 4.79178C23.4032 4.97667 23.6323 5.22587 23.9043 5.53938C24.0616 5.72044 24.1444 5.95442 24.1359 6.19413C24.1275 6.43383 24.0284 6.6614 23.8587 6.83093L21.49 9.19966C21.407 9.28284 21.296 9.33219 21.1787 9.33813C21.0613 9.34408 20.9459 9.30618 20.8549 9.23182C20.6855 9.09315 20.5488 8.98463 20.4423 8.90491C19.3801 8.10895 18.2036 7.47816 16.9528 7.03391C16.7552 6.96357 16.6366 6.76193 16.6715 6.5556L17.0841 4.07701C14.1407 2.90135 10.8581 2.90135 7.91467 4.07701L8.32598 6.55159C8.34277 6.65271 8.32353 6.75651 8.27162 6.8449C8.21972 6.93328 8.13843 7.00065 8.04195 7.03525C6.79201 7.48016 5.61648 8.1114 4.55517 8.9076C4.44866 8.98731 4.31133 9.09516 4.14386 9.23316C4.05284 9.30725 3.93755 9.34492 3.82035 9.33885C3.70314 9.33279 3.59236 9.28343 3.50947 9.20034L3.51014 9.19967Z" fill="white"/>
</svg>
