<svg width="24" height="25" viewBox="0 0 24 25" fill="none" xmlns="http://www.w3.org/2000/svg">
<path fill-rule="evenodd" clip-rule="evenodd" d="M15 13.5H13V15.5C13 16.05 12.55 16.5 12 16.5C11.45 16.5 11 16.05 11 15.5V13.5H9C8.45 13.5 8 13.05 8 12.5C8 11.95 8.45 11.5 9 11.5H11V9.5C11 8.95 11.45 8.5 12 8.5C12.55 8.5 13 8.95 13 9.5V11.5H15C15.55 11.5 16 11.95 16 12.5C16 13.05 15.55 13.5 15 13.5ZM18 3.5H6C4.346 3.5 3 4.846 3 6.5V18.5C3 20.154 4.346 21.5 6 21.5H18C19.654 21.5 21 20.154 21 18.5V6.5C21 4.846 19.654 3.5 18 3.5Z" fill="#8A8F97"/>
</svg>
