<svg width="16" height="17" viewBox="0 0 16 17" fill="none" xmlns="http://www.w3.org/2000/svg">
<path fill-rule="evenodd" clip-rule="evenodd" d="M4.40004 3.16668C3.44404 3.16668 2.66671 3.94401 2.66671 4.90001C2.66671 9.82534 6.67404 13.8333 11.6 13.8333C12.5554 13.8333 13.3334 13.056 13.3334 12.1C13.3334 12.026 13.3287 11.9533 13.3194 11.8813L10.2394 11.1747C10.178 11.292 10.1107 11.4193 10.0494 11.538C9.74537 12.118 9.52537 12.5393 8.96404 12.3133C6.76004 11.54 4.96071 9.74001 4.17737 7.50934C3.93937 6.98601 4.39271 6.74868 4.96737 6.44868C5.08404 6.38734 5.21004 6.32134 5.32537 6.26134L4.61871 3.18068C4.54471 3.17134 4.47271 3.16668 4.40004 3.16668ZM11.6 15.1667C5.93871 15.1667 1.33337 10.5613 1.33337 4.90001C1.33337 3.20868 2.70871 1.83334 4.40004 1.83334C4.57337 1.83334 4.74471 1.84801 4.91071 1.87668C5.07271 1.90268 5.23537 1.94401 5.39404 1.99868C5.61071 2.07401 5.77404 2.25601 5.82537 2.48001L6.73804 6.45601C6.78871 6.67468 6.72537 6.90401 6.56937 7.06668C6.47871 7.16134 6.47671 7.16334 5.65004 7.59601C6.31937 9.04534 7.48271 10.2047 8.90271 10.8513C9.33604 10.024 9.33871 10.0213 9.43337 9.93068C9.59604 9.77468 9.82671 9.71401 10.044 9.76201L14.0207 10.6747C14.244 10.726 14.426 10.8887 14.5007 11.1053C14.5554 11.2627 14.5967 11.4253 14.624 11.5927C14.652 11.7573 14.6667 11.928 14.6667 12.1C14.6667 13.7913 13.2907 15.1667 11.6 15.1667Z" fill="#8A8F97"/>
</svg>
