<svg width="20" height="20" viewBox="0 0 20 20" fill="none" xmlns="http://www.w3.org/2000/svg">
<path d="M3.06 14.7229L3.06002 14.7229L3.05901 14.7202C2.84718 14.1578 2.91598 13.5293 3.26393 12.9545L3.26423 12.954L4.22256 11.3623L4.22276 11.362C4.33914 11.168 4.44228 10.8939 4.51609 10.6257C4.58994 10.3575 4.64172 10.0688 4.64172 9.84168V7.43335C4.64172 4.47142 7.05479 2.05835 10.0167 2.05835C12.9787 2.05835 15.3917 4.47142 15.3917 7.43335V9.84168C15.3917 10.0648 15.4436 10.3535 15.5172 10.6232C15.5909 10.8931 15.6938 11.1706 15.8093 11.368L15.8093 11.368L15.8107 11.3703L16.7604 12.9532C16.7605 12.9533 16.7605 12.9534 16.7606 12.9535C17.0799 13.4883 17.1395 14.1344 16.9237 14.7222C16.7087 15.3079 16.242 15.7528 15.6552 15.9459L15.6537 15.9464C13.8469 16.5541 11.9322 16.8583 10.0167 16.8583C8.10172 16.8583 6.18728 16.5543 4.37218 15.9466C3.73457 15.7262 3.26423 15.2845 3.06 14.7229ZM3.91088 13.3377L3.91017 13.3389C3.70028 13.6919 3.62366 14.097 3.76581 14.4624C3.89868 14.834 4.21904 15.0945 4.61093 15.2283L4.61232 15.2287C8.14707 16.4126 11.8944 16.4127 15.4291 15.2289C15.801 15.1049 16.0923 14.8243 16.2269 14.4516C16.3594 14.0845 16.3301 13.6804 16.1224 13.3375C16.1223 13.3373 16.1223 13.3372 16.1222 13.3371L15.1651 11.7475C14.8709 11.2434 14.6417 10.3962 14.6417 9.83335V7.43335C14.6417 4.87861 12.5715 2.80835 10.0167 2.80835C7.47063 2.80835 5.39172 4.8783 5.39172 7.43335V9.84168C5.39172 10.4039 5.15458 11.2594 4.86849 11.7473L3.91088 13.3377Z" fill="#1E903E" stroke="#1E903E" stroke-width="0.5"/>
<path d="M12.2911 2.23122L12.2911 2.23121L12.2903 2.2292C11.9261 1.28751 11.0368 0.683313 10.0254 0.683313C9.01376 0.683313 8.1254 1.29598 7.76109 2.22773C7.64746 2.50776 7.7105 2.81803 7.90586 3.03395C8.10158 3.25028 8.41159 3.34462 8.70309 3.25162C9.32239 3.06686 9.9835 3.01804 10.6715 3.1069C10.8893 3.13922 11.1159 3.18776 11.3516 3.25274C11.4226 3.27295 11.4945 3.28331 11.5671 3.28331C11.7719 3.28331 11.9876 3.20182 12.1432 3.0359L12.1432 3.03592L12.145 3.03395C12.3433 2.81472 12.3925 2.50503 12.2911 2.23122Z" fill="#1E903E" stroke="#1E903E" stroke-width="0.3"/>
<path d="M6.89136 16.6167H6.84136V16.6667C6.84136 17.505 7.18001 18.3177 7.77267 18.9104C8.36532 19.503 9.17802 19.8417 10.0164 19.8417C11.769 19.8417 13.1914 18.4193 13.1914 16.6667V16.6167H13.1414H11.8914H11.8414V16.6667C11.8414 17.6724 11.0221 18.4917 10.0164 18.4917C9.53798 18.4917 9.06736 18.297 8.72671 17.9563C8.38607 17.6157 8.19136 17.1451 8.19136 16.6667V16.6167H8.14136H6.89136Z" fill="#1E903E" stroke="#1E903E" stroke-width="0.1"/>
</svg>
