<svg width="16" height="17" viewBox="0 0 16 17" fill="none" xmlns="http://www.w3.org/2000/svg">
<path fill-rule="evenodd" clip-rule="evenodd" d="M8.66671 3.16668C11.2394 3.16668 13.3334 5.26068 13.3334 7.83334C13.3334 8.20201 13.6314 8.50001 14 8.50001C14.3687 8.50001 14.6667 8.20201 14.6667 7.83334C14.6667 4.52468 11.9754 1.83334 8.66671 1.83334C8.29871 1.83334 8.00004 2.13134 8.00004 2.50001C8.00004 2.86868 8.29871 3.16668 8.66671 3.16668ZM8.66671 5.83334C9.76937 5.83334 10.6667 6.73068 10.6667 7.83334C10.6667 8.20201 10.9647 8.50001 11.3334 8.50001C11.702 8.50001 12 8.20201 12 7.83334C12 5.99534 10.5047 4.50001 8.66671 4.50001C8.29871 4.50001 8.00004 4.79801 8.00004 5.16668C8.00004 5.53534 8.29871 5.83334 8.66671 5.83334ZM14.02 10.6749C14.244 10.7262 14.426 10.8889 14.5007 11.1055C14.5554 11.2622 14.5974 11.4255 14.624 11.5922C14.652 11.7582 14.6667 11.9275 14.6667 12.1002C14.6667 13.7909 13.2914 15.1669 11.6 15.1669C5.93937 15.1669 1.33337 10.5615 1.33337 4.89954C1.33337 3.20888 2.70937 1.83354 4.40004 1.83354C4.57337 1.83354 4.74471 1.84821 4.91071 1.87688C5.07271 1.90288 5.23604 1.94421 5.39404 1.99888C5.61137 2.07421 5.77404 2.25621 5.82537 2.48021L6.73804 6.45554C6.78871 6.67488 6.72537 6.90421 6.57004 7.06621C6.47871 7.16154 6.47671 7.16354 5.65004 7.59554C6.31937 9.04554 7.48271 10.2042 8.90337 10.8515C9.33671 10.0242 9.33871 10.0215 9.43337 9.93021C9.59604 9.77488 9.82471 9.71288 10.044 9.76154L14.02 10.6749Z" fill="#8A8F97"/>
</svg>
