<svg width="16" height="16" viewBox="0 0 16 16" fill="none" xmlns="http://www.w3.org/2000/svg">
<path fill-rule="evenodd" clip-rule="evenodd" d="M14.5003 10.6058C14.555 10.7625 14.597 10.9258 14.6237 11.0925C14.6517 11.2578 14.6663 11.4278 14.6663 11.6005C14.6663 13.2911 13.291 14.6665 11.6003 14.6665C5.93901 14.6665 1.33301 10.0611 1.33301 4.3998C1.33301 2.70913 2.70901 1.33313 4.39967 1.33313C4.57367 1.33313 4.74434 1.34846 4.91034 1.37713C5.07234 1.40313 5.23634 1.4438 5.39434 1.49913C5.61101 1.57446 5.77434 1.7558 5.82567 1.9798L6.73834 5.9558C6.78834 6.17446 6.72501 6.40446 6.56967 6.56646C6.47847 6.66167 6.47568 6.66313 5.65307 7.09468L5.64967 7.09646C6.31034 8.5378 7.47634 9.7018 8.90301 10.3518C9.33573 9.5243 9.33833 9.5218 9.43327 9.43085L9.43367 9.43046C9.59567 9.27446 9.82501 9.21313 10.0443 9.2618L14.0203 10.1745C14.2443 10.2258 14.4257 10.3885 14.5003 10.6058ZM11.5119 5.7988C11.2425 6.0668 10.8032 6.0668 10.5345 5.7988C10.2665 5.53013 10.2665 5.0908 10.5345 4.82147L11.0232 4.33347L10.5345 3.8448C10.2665 3.57613 10.2665 3.1368 10.5345 2.86813C10.8032 2.59947 11.2425 2.59947 11.5119 2.86813L11.9999 3.3568L12.4885 2.86813C12.7572 2.59947 13.1965 2.59947 13.4652 2.86813C13.7339 3.1368 13.7339 3.57613 13.4652 3.8448L12.9765 4.33347L13.4652 4.82147C13.7339 5.0908 13.7339 5.53013 13.4652 5.7988C13.1965 6.0668 12.7572 6.0668 12.4885 5.7988L11.9999 5.31013L11.5119 5.7988Z" fill="url(#paint0_linear_1798_770)"/>
<defs>
<linearGradient id="paint0_linear_1798_770" x1="7.99967" y1="1.33313" x2="7.99967" y2="14.6665" gradientUnits="userSpaceOnUse">
<stop stop-color="#FF5959"/>
<stop offset="1" stop-color="#EF2C2C"/>
</linearGradient>
</defs>
</svg>
