<svg width="14" height="15" viewBox="0 0 14 15" fill="none" xmlns="http://www.w3.org/2000/svg">
<path fill-rule="evenodd" clip-rule="evenodd" d="M10.5999 14.1667C4.93858 14.1667 0.333252 9.56134 0.333252 3.90001C0.333252 2.20868 1.70925 0.833344 3.39992 0.833344C3.57325 0.833344 3.74459 0.84801 3.91059 0.876677C4.07259 0.902677 4.23592 0.94401 4.39392 0.998677C4.61125 1.07401 4.77392 1.25601 4.82525 1.48001L5.73858 5.45601C5.78858 5.67468 5.72525 5.90401 5.56992 6.06668C5.47858 6.16134 5.47658 6.16334 4.64992 6.59601C5.31925 8.04534 6.48258 9.20468 7.90325 9.85134C8.33592 9.02401 8.33858 9.02134 8.43325 8.93068C8.59658 8.77468 8.82658 8.71401 9.04459 8.76201L13.0206 9.67468C13.2439 9.72601 13.4259 9.88868 13.5013 10.1053C13.5559 10.2627 13.5966 10.4253 13.6239 10.5927C13.6519 10.7573 13.6666 10.928 13.6666 11.1C13.6666 12.7913 12.2913 14.1667 10.5999 14.1667Z" fill="#8A8F97"/>
</svg>
